<?xml version="1.0" encoding="utf-8"?>
<!-- Generator: Adobe Illustrator 22.1.0, SVG Export Plug-In . SVG Version: 6.00 Build 0)  -->
<svg version="1.1" id="Layer_1" xmlns="http://www.w3.org/2000/svg" xmlns:xlink="http://www.w3.org/1999/xlink" x="0px" y="0px"
	 viewBox="0 0 406 306" enable-background="new 0 0 406 306" xml:space="preserve">
<g id="_323_notifications_flatline">
	<ellipse fill="#D1D3D4" cx="209.9" cy="276.4" rx="51.1" ry="2.9"/>
	<path fill="#FFFFFF" d="M152.9,147.3c-0.3,0.4-1.2,20.7-2.3,21.8c-2.8,2.8-2.5-3-2.5-3s-5.5,11.9-8.6,11
		c-5.8-1.6,0.2-15.4,1.7-18.2c1.4-5.4,1.6-16.3,1.6-16.3"/>
	<path fill="#231F20" d="M139.9,177.5c-0.2,0-0.3,0-0.5-0.1c-1.1-0.3-1.9-1.1-2.3-2.1c-1.9-4.4,2.4-14.3,3.7-16.8
		c1.3-5.3,1.6-16,1.6-16.1c0-0.3,0.2-0.5,0.5-0.5s0.5,0.2,0.5,0.5l0,0c0,0.4-0.2,11-1.6,16.4v0.1c-1.1,2.2-5.4,11.9-3.7,16
		c0.3,0.7,0.9,1.3,1.7,1.5c1.9,0.5,5.8-5.9,8-10.7c0.1-0.2,0.3-0.3,0.6-0.3c0.2,0.1,0.4,0.3,0.4,0.5c-0.1,1.4,0.1,3,0.6,3.3
		c0.1,0.1,0.5-0.1,1-0.6c0.6-0.9,1.3-10.5,1.6-15.7c0.4-5.8,0.4-5.9,0.6-6.1c0.2-0.2,0.5-0.3,0.7-0.1c0.2,0.1,0.2,0.4,0.2,0.6
		c-0.1,0.4-0.3,2.9-0.5,5.6c-0.7,10.5-1.2,15.6-1.9,16.3s-1.6,1.1-2.2,0.8c-0.7-0.5-1.1-1.3-1.1-2.1
		C146,171.5,142.6,177.5,139.9,177.5z"/>
	<path fill="#FFFFFF" d="M227,101.7l12.2-5.3c0,0,2.4-5.9,4.9-6.6c2.9-0.6,5.8-1,8.7-1.1c1.6,1.2,2.4,3.2,1.9,5.1
		c-0.7,3.6-5.4,9.3-12,10.7l-12,10.6"/>
	<path fill="#231F20" d="M230.6,115.6c-0.1,0-0.3-0.1-0.4-0.2c-0.2-0.2-0.2-0.5,0-0.7l0,0l12-10.6c0.1-0.1,0.1-0.1,0.2-0.1
		c6.4-1.4,10.9-7,11.6-10.3c0.4-1.7-0.2-3.4-1.5-4.5c-2.8,0.2-5.7,0.5-8.4,1.1c-1.8,0.5-3.9,4.7-4.5,6.3c-0.1,0.1-0.2,0.2-0.3,0.3
		l-12.2,5.3c-0.3,0.1-0.6,0-0.7-0.3s0-0.6,0.3-0.7l12-5.2c0.5-1.1,2.7-6,5.1-6.7c2.9-0.6,5.9-1,8.8-1.2c0.1,0,0.2,0,0.3,0.1
		c1.8,1.3,2.6,3.5,2.1,5.7c-0.7,3.7-5.4,9.5-12.3,11.1l-11.9,10.5C230.8,115.6,230.7,115.6,230.6,115.6z"/>
	<polygon fill="#231F20" points="251.7,81.4 236.6,100.7 245.4,101.7 259.4,83 	"/>
	<path fill="#231F20" d="M245.4,102.3L245.4,102.3l-8.9-1c-0.2,0-0.3-0.1-0.4-0.3c-0.1-0.2,0-0.4,0.1-0.5l15.1-19.3
		c0.1-0.2,0.3-0.2,0.5-0.2l7.7,1.6c0.2,0,0.3,0.2,0.4,0.3c0.1,0.2,0,0.3-0.1,0.5l-14,18.7C245.7,102.2,245.6,102.2,245.4,102.3z
		 M237.6,100.3l7.6,0.9l13.4-17.8L252,82L237.6,100.3z"/>
	<polygon fill="#FFFFFF" points="252.2,81.8 238.9,98.7 244.8,99.6 257.9,83 	"/>
	<path fill="#6C63FF" d="M236.6,112.4l-6-13.9l-30,13.9l3,23.9C203.7,136.3,230.7,120.2,236.6,112.4z"/>
	<path fill="#FFFFFF" d="M234.5,244.8c0,0,6.4,15.8,5.8,15.7s-14.4,2.2-14.4,2.2s-6.3-12.9-6.1-13.2
		C220,249.2,234.5,244.8,234.5,244.8z"/>
	<path fill="#231F20" d="M225.9,263.2c-0.2,0-0.4-0.1-0.5-0.3c-6.4-13.2-6.3-13.4-6.1-13.7s0.2-0.5,15-5c0.3-0.1,0.5,0.1,0.6,0.3
		c6.3,15.5,6,15.9,5.8,16.2c-0.1,0.2-0.3,0.2-0.4,0.2c-0.5,0-8.8,1.3-14.3,2.2L225.9,263.2z M220.4,249.8c0.6,1.6,3.7,8.1,5.8,12.4
		c2.6-0.4,11.2-1.8,13.5-2.1c-0.5-1.9-3.5-9.6-5.6-14.7C229.3,246.9,222.1,249.2,220.4,249.8L220.4,249.8z"/>
	<path fill="#231F20" d="M240.3,260.5c0,0,22.6,1.7,23.3,5.8c0.6,4.1-33.9,10.1-33.9,10.1l-3.7-13.7L240.3,260.5z"/>
	<path fill="#231F20" d="M229.6,276.9c-0.2,0-0.4-0.1-0.5-0.4l-3.7-13.7c0-0.1,0-0.3,0.1-0.4s0.2-0.2,0.3-0.2l14.4-2.2h0.1
		c3.8,0.3,23.1,1.9,23.7,6.3C264.7,270.6,237.9,275.5,229.6,276.9L229.6,276.9z M226.6,263.1l3.4,12.7c16.2-2.8,33.4-7.2,33-9.4
		c-0.2-1.4-6.6-4.2-22.7-5.4L226.6,263.1z"/>
	<polygon fill="#FFFFFF" points="187,241.4 180.5,247 171.5,234.7 181,227.1 	"/>
	<path fill="#231F20" d="M180.5,247.5L180.5,247.5c-0.1,0-0.3-0.1-0.4-0.2l-9-12.3c-0.2-0.2-0.1-0.5,0.1-0.7l9.5-7.7
		c0.1-0.1,0.3-0.1,0.4-0.1c0.2,0,0.3,0.1,0.3,0.3l6.1,14.3c0.1,0.2,0,0.4-0.1,0.6l-6.6,5.6C180.7,247.5,180.6,247.5,180.5,247.5z
		 M172.2,234.8l8.4,11.4l5.8-5l-5.6-13.4L172.2,234.8z"/>
	<path fill="#231F20" d="M180.5,247c0,0,4.6,23.6,0.7,22.8S161.6,243,161.6,243l9.9-8.3L180.5,247z"/>
	<path fill="#231F20" d="M181.3,270.3c-0.1,0-0.2,0-0.3,0c-4-0.8-18.3-24.4-19.8-27c-0.1-0.2-0.1-0.5,0.1-0.6l9.9-8.3
		c0.1-0.1,0.2-0.2,0.4-0.2c0.1,0,0.3,0.1,0.3,0.2l9,12.3c0,0.1,0.1,0.1,0.1,0.2c0,0.1,1,5.1,1.6,10.4c1.4,10.9,0.1,12.2-0.4,12.6
		C182,270.1,181.7,270.3,181.3,270.3z M162.3,243.1c6.2,10.4,16.2,25.6,19,26.2c0.1,0,0.2,0,0.3-0.1c1.7-1.6-0.1-14.3-1.5-22
		l-8.6-11.7L162.3,243.1z"/>
	<path fill="#231F20" d="M207.4,134.6c0,0,39,55,39.1,59.9c0.2,9.6-59.2,50.8-59.2,50.8l-10-18.2l36.4-32.7l-34.2-62.2L207.4,134.6z
		"/>
	<path fill="#231F20" d="M187.3,245.8h-0.1c-0.1,0-0.3-0.1-0.3-0.3l-10-18.2c-0.1-0.2-0.1-0.5,0.1-0.6l36.1-32.5l-34-61.8
		c-0.1-0.2-0.1-0.5,0.2-0.7c0.1-0.1,0.2-0.1,0.3-0.1l27.9,2.4c0.1,0,0.3,0.1,0.4,0.2c4.1,5.6,39.1,55.2,39.2,60.2
		c0.2,9.7-57,49.6-59.4,51.2C187.6,245.8,187.5,245.8,187.3,245.8z M178,227.2l9.5,17.3c2.6-1.8,16-11.2,29.2-21.5
		c25.6-19.9,29.4-26.4,29.3-28.6c-0.1-3.9-28-44-38.9-59.4l-26.7-2.3l33.7,61.3c0.1,0.2,0.1,0.5-0.1,0.6L178,227.2z"/>
	<polygon fill="#231F20" points="168.6,140.6 221,257.6 241,249.3 200,134.4 	"/>
	<path fill="#231F20" d="M221,258.2c-0.2,0-0.4-0.1-0.5-0.3l-52.4-117c-0.1-0.1-0.1-0.3,0-0.4c0.1-0.1,0.2-0.2,0.3-0.3l31.4-6.2
		c0.2,0,0.5,0.1,0.6,0.3l41,114.9c0.1,0.3,0,0.5-0.3,0.6l-20,8.3C221.1,258.1,221.1,258.2,221,258.2z M169.4,141l51.9,116l19.1-7.9
		l-40.7-114L169.4,141z"/>
	<path fill="#FFFFFF" d="M228.3,212.1c-0.2,0-0.4-0.1-0.5-0.3l-23.5-63.6c-0.1-0.2,0-0.3,0.1-0.5l4.1-5.5c0.2-0.2,0.5-0.3,0.7-0.1
		s0.3,0.5,0.1,0.7l0,0l-3.9,5.3l23.3,63.4c0.1,0.3,0,0.5-0.3,0.6l0,0C228.4,212,228.3,212,228.3,212.1z"/>
	<path fill="#FFFFFF" d="M184.5,59.6c-1,0.2-2.1-0.5-2.3-1.5c0-0.2,0-0.4,0-0.5l-0.6-10.2c-0.3-3.1-0.2-6.2,0.3-9.2
		c0.6-2.9,2.5-5.9,5.4-6.5c1-0.2,2-0.1,3-0.3c1.9-0.5,3.1-2.1,4.7-3.2c2.5-1.7,5.8-2,8.6-0.7c0.7,0.4,1.5,0.7,2.2,1
		c2.5,0.7,4.9-1,7.5-1.2c3.8-0.3,7.2,2.8,8.8,6.3c2.1,4.8,1.2,11.4-3.5,13.7c-3.7,1.8-7.5,0.7-11.3,0.9c-4,0.2-5.8,3.2-8.7,5.5
		c-2.8,2.2-6,3.8-9.5,4.4c-1.3,0.2-1.7,0.8-2.9,1.2C185.6,59.5,185.1,59.6,184.5,59.6z"/>
	<path fill="#231F20" d="M184.3,60.1c-1.3,0.1-2.5-0.9-2.6-2.2c0-0.1,0-0.2,0-0.3l-0.6-10.2c-0.3-3.1-0.2-6.3,0.3-9.3
		c0.7-2.9,2.5-6.2,5.8-6.8c0.5-0.1,1-0.1,1.4-0.1c0.5,0,1-0.1,1.5-0.2c1.2-0.4,2.2-1.1,3-1.9c0.5-0.4,1-0.9,1.5-1.2
		c2.7-1.9,6.2-2.2,9.1-0.8l0.7,0.4c0.5,0.3,0.9,0.5,1.4,0.6c1.4,0.2,2.9,0.1,4.3-0.5c1-0.3,2-0.6,3-0.7c4.2-0.4,7.7,3,9.3,6.6
		c2.2,5,1.2,11.9-3.7,14.4c-2.7,1.3-5.4,1.2-8.1,1c-1.1-0.1-2.3-0.1-3.4-0.1c-2.8,0.1-4.4,1.7-6.2,3.4c-0.7,0.6-1.4,1.3-2.2,1.9
		c-2.8,2.3-6.2,3.9-9.8,4.5c-0.5,0.1-1.1,0.3-1.5,0.6c-0.4,0.2-0.8,0.4-1.3,0.6c-0.6,0.2-1.2,0.3-1.8,0.4L184.3,60.1z M200,27.1
		c-1.7,0-3.3,0.5-4.7,1.4c-0.5,0.4-1,0.8-1.4,1.2c-1,1-2.1,1.7-3.4,2.2c-0.6,0.1-1.2,0.2-1.7,0.2c-0.4,0-0.9,0.1-1.3,0.1
		c-2.8,0.5-4.4,3.5-5,6.1c-0.5,3-0.6,6-0.3,9.1l0.6,10.2c0.1,1.1,0.6,1.5,1.8,1.5l0,0c0.5,0,1.1-0.1,1.6-0.3
		c0.4-0.1,0.8-0.3,1.1-0.5c0.6-0.3,1.2-0.6,1.8-0.7c3.4-0.6,6.6-2.1,9.3-4.3c0.8-0.6,1.4-1.2,2.1-1.9c1.9-1.8,3.8-3.6,6.9-3.7
		c1.2,0,2.4,0,3.5,0.1c2.7,0.2,5.2,0.3,7.6-0.9c4.4-2.2,5.3-8.5,3.3-13c-1.4-3.1-4.6-6.3-8.3-6c-0.9,0.1-1.9,0.3-2.8,0.7
		c-1.5,0.7-3.2,0.8-4.9,0.5c-0.6-0.2-1.1-0.4-1.6-0.7c-0.2-0.1-0.5-0.2-0.7-0.3C202.3,27.4,201.1,27.1,200,27.1z"/>
	<path fill="#FFFFFF" d="M208,50c0,0,2.8,6.8,1.7,7.9s-3.6-0.3-3.6-0.3"/>
	<path fill="#231F20" d="M208.5,58.9c-0.9-0.1-1.9-0.3-2.7-0.8c-0.2-0.1-0.3-0.4-0.2-0.7c0.1-0.2,0.4-0.3,0.7-0.2l0,0
		c0.6,0.3,2.4,1,3,0.4c0.4-0.4-0.4-3.9-1.8-7.4c-0.1-0.3,0-0.6,0.3-0.7c0.3-0.1,0.6,0,0.7,0.3c0.9,2.1,2.7,7.3,1.6,8.5
		C209.6,58.7,209,58.9,208.5,58.9z"/>
	<path fill="#FFFFFF" d="M208.8,41.9c2.1,2.6,0.5,6.8-0.1,9.6c-0.9,4-1.8,7.9-2.8,11.9c-0.7,2.5-7.2,1.2-8.2,0.2l-1.1,8.5
		c0,0-2.5,4.3-7.3,0.8s-5.3-7.2-5.3-7.2l2.8-11.5c0,0,4.3,0.9,7.9-3.7c3.6-4.6,5.1-12.6,5.1-12.6S206.7,39.4,208.8,41.9z"/>
	<path fill="#231F20" d="M192.8,74.8c-1.4-0.1-2.8-0.6-3.9-1.5c-4.9-3.6-5.5-7.3-5.5-7.5c0-0.1,0-0.1,0-0.2l2.8-11.5
		c0.1-0.3,0.3-0.4,0.6-0.4c0.2,0,4.1,0.8,7.4-3.5c3.5-4.5,5.1-12.3,5.1-12.4c0-0.1,0.1-0.2,0.2-0.3c0.1-0.1,0.2-0.1,0.4-0.1
		c0.3,0.1,7.1,1.4,9.3,4.1l0,0c1.9,2.3,1,5.8,0.3,8.5c-0.1,0.5-0.3,1-0.4,1.5c-0.9,4-1.8,8-2.8,11.9c-0.3,0.8-1,1.5-1.9,1.6
		c-2.2,0.4-4.4,0.2-6.4-0.7l-1,7.7c0,0.1,0,0.1-0.1,0.2c-0.7,1.2-1.9,2-3.2,2.3C193.4,74.8,193.1,74.8,192.8,74.8z M184.4,65.8
		c0.1,0.6,1,3.7,5.1,6.7c1.1,1,2.5,1.4,4,1.2c1-0.3,1.9-0.9,2.5-1.8l1.1-8.4c0-0.2,0.2-0.4,0.3-0.4c0.2-0.1,0.4,0,0.5,0.1
		c1.9,1,4.1,1.3,6.2,0.9c0.7-0.2,1-0.5,1.2-0.9c1-3.9,2-7.9,2.8-11.9c0.1-0.5,0.2-1,0.4-1.6c0.6-2.5,1.4-5.7-0.1-7.6
		c-1.6-1.9-6.6-3.2-8.2-3.6c-0.4,1.9-2,8.2-5.1,12.3s-6.7,4.1-8,4L184.4,65.8z"/>
	<path fill="#FFFFFF" d="M206.3,60.5c0,0-3.5,1.3-4.5-2.3"/>
	<path fill="#231F20" d="M204.9,61.2c-0.6,0-1.2-0.1-1.7-0.4c-0.9-0.5-1.6-1.4-1.8-2.5c-0.1-0.3,0.1-0.6,0.4-0.6
		c0.3-0.1,0.6,0.1,0.6,0.4c0.2,0.8,0.6,1.4,1.3,1.8c0.8,0.3,1.7,0.4,2.5,0.1c0.3-0.1,0.6,0,0.7,0.3s0,0.6-0.3,0.7
		C206,61.1,205.5,61.2,204.9,61.2z"/>
	<path fill="#FFFFFF" d="M199.8,51c0.1-1-0.1-2.1-0.6-3c-0.2-0.8-0.6-1.5-1.1-2.1c-0.5-0.7-1.2-1.1-2-1.1c-0.7,0-1.4,0.4-1.8,0.9
		c-0.4,0.6-0.7,1.2-0.9,1.9c-0.8,3,0.2,6.2,2.4,8.4l-0.2-0.3"/>
	<path fill="#231F20" d="M195.8,56.6c-0.1,0-0.3-0.1-0.3-0.1c-2.4-2.3-3.3-5.7-2.5-8.9c0.2-0.7,0.5-1.4,1-2c0.5-0.7,1.3-1.1,2.2-1.1
		c1,0.1,1.8,0.5,2.4,1.3c0.5,0.7,0.9,1.4,1.1,2.2c0.5,1,0.7,2.1,0.6,3.2c0,0.3-0.3,0.5-0.6,0.4l0,0c-0.3-0.1-0.5-0.3-0.4-0.6
		c0.1-0.9-0.1-1.9-0.5-2.7c-0.2-0.7-0.6-1.4-1-2c-0.4-0.5-1-0.8-1.6-0.9c-0.6,0-1.1,0.3-1.4,0.7c-0.4,0.5-0.7,1.1-0.8,1.7
		c-0.7,2.7,0,5.5,1.8,7.5c0.1,0,0.2,0.1,0.3,0.2l0.2,0.3c0.1,0.2,0.1,0.5-0.1,0.7C196,56.6,195.9,56.6,195.8,56.6z"/>
	<path fill="#231F20" d="M197.6,63.7c0,0-3.2-1.7-4.3-4.4c0,0-1,6.1,3.8,9L197.6,63.7z"/>
	<path fill="#231F20" d="M197.1,68.8c-0.1,0-0.2,0-0.3-0.1c-5.1-3-4.1-9.4-4.1-9.5c0-0.2,0.2-0.4,0.4-0.4s0.4,0.1,0.5,0.3
		c1,2.5,4.1,4.1,4.1,4.2c0.2,0.1,0.3,0.3,0.3,0.5l-0.5,4.5c0,0.2-0.1,0.3-0.3,0.4C197.3,68.7,197.2,68.8,197.1,68.8z M193.7,61
		c0,2.5,1.1,4.8,3,6.3l0.3-3.4C195.8,63.2,194.7,62.2,193.7,61L193.7,61z"/>
	
		<ellipse transform="matrix(0.3615 -0.9324 0.9324 0.3615 88.0935 222.2065)" fill="#231F20" cx="206.28" cy="46.78" rx="1.5" ry="0.6"/>
	<path fill="#6C63FF" d="M177.1,66.5c0,0,17.7,0.7,22.2,10.3s3,42.3,5.7,45.1s8.9,16.2,8.6,16.8c-0.2,0.6-47.2,5.7-47.2,5.7
		s-0.5-10.7-2.7-24.9C161.4,105.3,164,64.8,177.1,66.5z"/>
	<path fill="#FFFFFF" d="M184.9,160.9c-0.1,0-0.2,0-0.3-0.1c-0.2-0.2-0.3-0.5-0.1-0.7c6.4-8.1,3.1-12.3,3-12.5
		c-0.2-0.2-0.2-0.5,0.1-0.7l0,0c0.2-0.2,0.5-0.1,0.7,0.1c0.2,0.2,4,5.1-2.9,13.8C185.2,160.9,185,160.9,184.9,160.9z"/>
	<path fill="#6C63FF" d="M171.2,66.5c0,0-27,29.4-31.6,84.4l15.2-0.3c0,0,6.8-28.3,25.6-59.3L171.2,66.5z"/>
	<path fill="#231F20" d="M211.9,134.5h-0.1c-0.2,0-0.4-0.2-0.4-0.4c-0.2-0.5-1.8-3.3-3.2-5.7c-2-3.5-4.1-7.1-4.5-8.2
		c-0.5-1.3-1-10.2-1.8-21.7c-0.3-5.1-0.6-9.4-0.8-11.1c-0.5-3.5-1.3-7-2.4-10.3c-0.1-0.3,0.1-0.6,0.4-0.7c0.3-0.1,0.6,0.1,0.7,0.4
		c1.1,3.4,1.9,7,2.4,10.5c0.2,1.7,0.5,6.1,0.8,11.2c0.5,8.5,1.3,20.2,1.7,21.4c0.4,1,2.5,4.8,4.5,8.1c3.4,5.9,3.4,6,3.3,6.3
		C212.4,134.4,212.2,134.5,211.9,134.5z"/>
	<path fill="#231F20" d="M157,141.5c-0.1,0-0.1,0-0.2,0c-0.3-0.1-0.4-0.4-0.3-0.6c0.1-0.4,13.2-37.1,26.8-54.6
		c0.2-0.2,0.5-0.3,0.7-0.1l0,0c0.2,0.2,0.3,0.5,0.1,0.7l0,0c-13.6,17.3-26.5,53.9-26.7,54.3C157.4,141.4,157.2,141.5,157,141.5z"/>
	<path fill="#FFFFFF" d="M247.6,99.6c0.1-3.7,0.8-7.5,3-10.3c0.6-0.7,1.5-1.4,2.3-1c0.6,0.3,0.9,1,1,1.6c0,0.7,0.2,1.3,0.4,1.9"/>
	<path fill="#231F20" d="M247.6,100.1L247.6,100.1c-0.3,0-0.5-0.2-0.5-0.5l0,0c0.1-4.6,1.1-8.1,3.2-10.6c0.9-1.1,2-1.6,3-1.2
		c0.7,0.4,1.2,1.2,1.2,2c0,0.2,0.1,0.3,0.1,0.5c0,0.4,0.1,0.8,0.3,1.2c0.1,0.2,0,0.5-0.2,0.7c-0.2,0.1-0.6,0-0.7-0.2l0,0
		c-0.2-0.5-0.4-1-0.4-1.6c0-0.2,0-0.3-0.1-0.5c-0.1-0.4-0.2-1-0.7-1.2c-0.4-0.2-1.3,0.3-1.7,0.9c-1.9,2.3-2.9,5.6-3,10
		C248.1,99.9,247.8,100.1,247.6,100.1z"/>
	<path fill="#6C63FF" d="M174.3,55.9c-1.3-1-2.9-1.7-4.5-2c-2.2-0.2-4.4,0.4-6.3,1.5c-2.6,1.3-4.9,3.3-6.4,5.7
		c-1.6,2.5-1.8,5.6-0.6,8.3c1.4,2.4,3.9,4.1,6.6,4.5c2.7,0.4,5.5,0.5,8.3,0.2c2.6-0.2,5.3-0.2,7.9-0.1c5.4,0.4,10.6,2.2,15.9,3.2
		c3.4,0.6,2-2.9,0.8-4.2c-2.2-2.2-4.4-4.2-6.7-6.2C184.5,62.8,179.5,59.1,174.3,55.9z"/>
	<path fill="#231F20" d="M186.9,74.8c-0.1,0-0.2,0-0.3-0.1c-6-3.8-13.5-4.1-19.8-0.8c-0.3,0.1-0.6,0-0.7-0.3c-0.1-0.2,0-0.5,0.1-0.6
		c6.6-3.5,14.6-3.2,20.8,0.9c0.2,0.2,0.3,0.5,0.1,0.7C187.2,74.8,187,74.8,186.9,74.8z"/>
	<path fill="#FFFFFF" d="M284.7,37.5h-43.5c-2.5,0-4.5,2-4.5,4.6v23.2c0,2.5,2,4.5,4.5,4.5h5.3v9.1l5.3-9.1h32.9
		c2.5,0,4.6-2,4.6-4.5c0,0,0,0,0-0.1V42C289.3,39.5,287.2,37.5,284.7,37.5L284.7,37.5z"/>
	<path fill="#D1D3D4" d="M246.5,79.4h-0.1c-0.2-0.1-0.4-0.3-0.4-0.5v-8.6h-4.8c-2.8,0-5.1-2.3-5.1-5.1V42c0-2.8,2.3-5.1,5.1-5.1
		h43.5c2.8,0,5.1,2.3,5.1,5.1v23.2c0,2.8-2.3,5.1-5.1,5.1l0,0H252l-5.1,8.8C246.8,79.3,246.6,79.4,246.5,79.4z M241.2,38
		c-2.2,0-4.1,1.8-4.1,4.1v23.2c0,2.2,1.8,4.1,4.1,4.1h5.3c0.3,0,0.5,0.2,0.5,0.5V77l4.3-7.5c0.1-0.2,0.3-0.3,0.4-0.3h32.9
		c2.2,0,4.1-1.8,4.1-4.1V42c0-2.2-1.8-4.1-4.1-4.1L241.2,38z"/>
	<g id="_5xpas6.tif">
		<path fill="#D1D3D4" d="M262.9,61.3h-8c-0.3,0-0.6-0.2-0.6-0.5c0-0.1,0-0.3,0.1-0.4c0.3-0.5,0.6-1,1-1.4c0.6-0.9,1-1.9,1.2-2.9
			c0-0.2,0-0.4,0-0.7V51c0-0.8,0.1-1.6,0.4-2.4c0.3-0.9,0.8-1.7,1.5-2.3c0.7-0.7,1.6-1.2,2.6-1.4c0.1,0,0.1-0.1,0.1-0.1s0-0.5,0-0.7
			c0-0.9,0.8-1.7,1.7-1.7c0.8,0,1.6,0.6,1.7,1.5c0,0.3,0,0.6,0,0.9c0,0.1,0,0.1,0.1,0.2c1.8,0.5,3.2,1.7,3.9,3.4
			c0.3,0.7,0.5,1.5,0.5,2.3s0,1.7,0,2.5s0,1.5,0,2.2c0,0.8,0.2,1.5,0.5,2.3c0.4,0.9,0.9,1.7,1.5,2.5l0.2,0.3c0.1,0.2,0.1,0.4,0,0.6
			c-0.1,0.2-0.3,0.3-0.5,0.3h-7.9V61.3z M263.5,44.7c0-0.2,0-0.4,0-0.6c0-0.3-0.2-0.6-0.5-0.6s-0.5,0.2-0.6,0.5c0,0.2,0,0.5,0,0.7
			L263.5,44.7z"/>
		<path fill="#D1D3D4" d="M265.5,62.4c-0.6,1.4-2.3,2.1-3.7,1.5c-0.7-0.3-1.2-0.8-1.5-1.5H265.5z"/>
	</g>
	<circle fill="#FFFFFF" cx="284.9" cy="67.8" r="7.1"/>
	<path fill="#D1D3D4" d="M284.9,75.4c-4.2,0-7.6-3.4-7.6-7.6s3.4-7.6,7.6-7.6s7.6,3.4,7.6,7.6C292.5,71.9,289.1,75.4,284.9,75.4
		L284.9,75.4z M284.9,61.2c-3.6,0-6.6,2.9-6.6,6.6c0,3.6,2.9,6.6,6.6,6.6c3.6,0,6.6-2.9,6.6-6.6C291.5,64.1,288.5,61.2,284.9,61.2
		L284.9,61.2z"/>
	<path fill="#D1D3D4" d="M284.4,65l-1.7,1.4l-0.9-1l2.7-2.2h1.3v8.6h-1.5V65H284.4z"/>
</g>
</svg>
